<?xml version="1.0" standalone="no"?>
<!DOCTYPE svg PUBLIC "-//W3C//DTD SVG 20010904//EN"
 "http://www.w3.org/TR/2001/REC-SVG-20010904/DTD/svg10.dtd">
<svg version="1.0" xmlns="http://www.w3.org/2000/svg"
 width="1199.000000pt" height="277.000000pt" viewBox="0 0 1199.000000 277.000000"
 preserveAspectRatio="xMidYMid meet">

<g transform="translate(0.000000,277.000000) scale(0.100000,-0.100000)"
fill="#000000" stroke="none">
<path d="M190 1390 l0 -1220 1070 0 1070 0 0 1220 0 1220 -1070 0 -1070 0 0
-1220z m1800 316 l115 -116 -98 -97 -97 -98 98 -98 97 -97 -423 -422 -422
-423 -418 418 -417 417 98 98 97 97 -100 100 -99 99 422 417 422 416 305 -298
c168 -164 357 -350 420 -413z"/>
<path d="M927 1922 l-327 -327 333 -333 332 -332 48 48 47 47 -250 250 c-138
137 -250 255 -250 260 0 13 62 75 75 75 6 0 142 -132 302 -292 l293 -293 -137
-137 -138 -138 -275 275 -275 275 -55 -55 -55 -55 332 -332 332 -332 328 324
c180 179 329 330 331 335 1 6 -145 157 -326 338 l-327 327 -48 -48 -48 -49
253 -251 253 -251 -40 -40 c-21 -23 -44 -41 -50 -41 -5 0 -142 132 -303 293
l-292 292 138 138 137 137 270 -270 c148 -149 275 -270 280 -270 6 0 34 24 63
53 l52 52 -328 328 c-180 180 -332 327 -337 327 -6 0 -157 -147 -338 -328z"/>
<path d="M3386 2579 c-241 -31 -411 -136 -490 -303 -48 -101 -59 -213 -31
-320 32 -122 95 -196 375 -441 102 -89 199 -178 217 -198 85 -97 53 -195 -74
-230 -119 -34 -290 -17 -473 47 -58 20 -114 39 -124 43 -18 6 -18 2 -12 -58 4
-35 13 -135 20 -222 7 -86 15 -160 19 -163 14 -15 327 -55 469 -61 318 -12
518 45 663 191 97 98 145 212 145 341 0 176 -89 300 -390 540 -237 188 -286
251 -260 330 39 118 281 142 551 56 l89 -29 0 31 c0 17 -4 81 -10 141 -5 61
-12 145 -15 187 l-6 76 -102 17 c-215 35 -413 44 -561 25z"/>
<path d="M4430 2498 c-2 -480 -60 -1693 -86 -1779 -4 -14 25 -15 268 -15 l273
1 2 195 c5 435 52 1394 79 1608 l5 42 -270 0 -271 0 0 -52z"/>
<path d="M9806 2528 c-3 -13 -7 -140 -10 -283 -6 -253 -62 -1375 -71 -1405 -2
-8 -5 -41 -6 -74 l-3 -58 275 0 274 0 7 226 c13 440 67 1448 84 1574 l5 42
-275 0 -276 0 -4 -22z"/>
<path d="M6770 2114 c-248 -42 -380 -103 -510 -234 -144 -144 -201 -286 -202
-500 0 -208 55 -352 187 -486 67 -68 96 -89 175 -127 129 -63 234 -87 400 -94
277 -11 512 63 659 209 146 145 212 312 212 537 -1 205 -56 347 -185 477 -67
68 -97 89 -176 127 -135 65 -236 88 -400 92 -74 2 -146 2 -160 -1z m199 -400
c72 -21 134 -79 162 -152 18 -49 20 -73 17 -162 -9 -213 -101 -335 -263 -347
-74 -6 -128 8 -181 46 -166 123 -135 498 50 593 78 40 135 46 215 22z"/>
<path d="M8534 2106 c-329 -63 -541 -227 -629 -487 -40 -120 -47 -298 -16
-419 61 -245 215 -404 467 -483 235 -74 551 -56 758 42 180 86 315 251 367
448 31 113 31 299 1 406 -57 201 -165 327 -358 418 -45 21 -119 48 -165 59
-108 27 -324 35 -425 16z m297 -413 c93 -50 131 -128 133 -268 3 -262 -167
-426 -378 -363 -63 19 -140 100 -160 167 -36 121 -11 299 53 388 77 107 234
141 352 76z"/>
<path d="M5288 1985 c-35 -54 -125 -189 -200 -298 -76 -109 -138 -203 -138
-209 0 -6 61 -120 136 -255 75 -134 167 -306 204 -381 l68 -137 290 0 c160 -1
289 2 288 5 -2 3 -93 156 -203 340 -199 333 -243 411 -243 428 0 10 117 168
318 427 72 94 132 172 132 175 0 3 -132 5 -294 5 l-294 0 -64 -100z"/>
<path d="M10629 2070 c-1 -8 -4 -93 -8 -189 l-6 -173 60 6 c131 12 508 19 504
9 -4 -10 -183 -185 -506 -494 l-131 -125 -3 -200 -4 -200 597 0 597 0 5 50 c3
28 8 96 11 151 4 55 8 114 11 130 l5 30 -284 -4 c-157 -1 -292 1 -301 6 -13 7
47 68 294 298 171 160 312 299 315 310 2 11 7 108 10 215 l7 195 -586 0 c-514
0 -586 -2 -587 -15z"/>
<path d="M2772 308 c-27 -51 -57 -108 -66 -125 l-17 -33 39 0 c34 0 40 4 55
35 16 33 19 35 66 35 48 0 50 -1 61 -35 10 -32 15 -35 49 -35 l38 0 -45 125
-45 125 -43 0 -42 0 -50 -92z m102 10 c10 -41 7 -48 -24 -48 l-30 0 17 35 c19
41 28 44 37 13z"/>
<path d="M3296 313 c-4 -49 -9 -105 -11 -125 l-5 -38 95 0 c95 0 95 0 95 25 0
24 -3 25 -56 25 l-56 0 7 100 8 100 -36 0 -35 0 -6 -87z"/>
<path d="M3590 367 c0 -19 -3 -75 -7 -126 l-6 -92 99 3 c94 3 99 4 102 26 3
21 0 22 -62 22 -64 0 -66 1 -66 25 0 24 3 25 55 25 52 0 55 1 55 25 0 23 -3
25 -50 25 -47 0 -50 2 -50 25 0 24 3 25 59 25 57 0 71 8 71 41 0 5 -45 9 -100
9 l-100 0 0 -33z"/>
<path d="M3987 378 c-23 -36 -117 -216 -117 -222 0 -3 18 -6 39 -6 36 0 40 3
51 35 11 34 13 35 64 35 51 0 53 -1 62 -32 8 -29 14 -33 47 -36 20 -2 37 0 37
5 0 4 -20 60 -43 123 l-43 115 -41 3 c-35 3 -44 -1 -56 -20z m67 -85 c7 -20 4
-23 -23 -23 -36 0 -36 1 -15 42 17 33 23 30 38 -19z"/>
<path d="M4286 368 c-3 -18 -7 -75 -8 -126 l-3 -93 35 3 35 3 3 98 3 98 37 -3
c30 -2 38 -7 40 -26 2 -16 -3 -25 -20 -31 -13 -5 -27 -6 -32 -3 -5 3 -7 -1 -4
-9 3 -8 14 -40 24 -71 17 -57 18 -58 56 -58 21 0 38 2 38 5 0 3 -9 23 -20 45
-26 50 -25 58 5 82 25 20 33 60 17 86 -12 19 -69 32 -139 32 l-62 0 -5 -32z"/>
<path d="M4620 336 c0 -34 -3 -91 -6 -125 l-7 -61 36 0 36 0 3 82 3 81 45 -81
c45 -82 45 -82 86 -82 l42 0 6 63 c3 34 7 89 8 122 l2 60 -32 3 -32 3 0 -74
c0 -40 -3 -77 -7 -80 -3 -4 -26 29 -50 73 l-44 80 -45 0 -44 0 0 -64z"/>
<path d="M5000 336 c0 -34 -3 -91 -6 -125 l-7 -61 42 0 41 0 0 125 0 125 -35
0 -35 0 0 -64z"/>
<path d="M5200 322 c0 -44 -3 -100 -6 -126 l-7 -46 36 0 36 0 3 83 3 82 45
-80 c44 -78 46 -80 87 -83 l41 -3 6 53 c3 29 7 86 9 126 l4 72 -33 0 -34 0 0
-80 c0 -44 -3 -80 -7 -80 -5 0 -26 35 -49 78 l-41 77 -47 3 -46 3 0 -79z"/>
<path d="M5645 386 c-45 -20 -67 -50 -72 -100 -11 -94 35 -136 149 -136 34 0
68 4 74 8 6 4 14 35 18 70 l7 62 -51 0 c-42 0 -50 -3 -50 -19 0 -10 7 -21 15
-25 8 -3 15 -15 15 -26 0 -17 -6 -20 -38 -20 -71 0 -98 74 -46 127 23 23 31
25 85 21 55 -4 59 -3 59 18 0 14 -8 24 -22 28 -38 10 -111 6 -143 -8z"/>
<path d="M6226 308 c-11 -161 -11 -158 29 -158 l35 0 0 50 0 50 56 0 56 0 -4
-50 -3 -50 38 0 37 0 0 48 c0 27 3 83 6 125 l7 77 -36 0 c-35 0 -35 -1 -42
-50 l-7 -50 -49 0 -49 0 0 50 0 50 -34 0 -33 0 -7 -92z"/>
<path d="M6606 384 c-3 -9 -6 -55 -6 -103 0 -76 3 -90 20 -106 25 -22 122 -32
162 -16 42 16 55 48 62 149 l7 93 -38 -3 -38 -3 -5 -81 c-6 -87 -19 -114 -55
-114 -40 0 -48 23 -42 115 l6 85 -33 0 c-22 0 -36 -6 -40 -16z"/>
<path d="M6970 328 c0 -40 -3 -97 -6 -125 l-7 -53 69 0 c76 0 133 13 146 32
15 24 9 67 -12 80 -19 12 -19 13 1 34 28 30 22 74 -11 91 -14 7 -60 13 -102
13 l-78 0 0 -72z m135 -3 c0 -15 -8 -21 -32 -23 -30 -3 -33 -1 -33 23 0 24 3
26 33 23 24 -2 32 -8 32 -23z m-17 -71 c16 -5 22 -13 20 -28 -2 -16 -11 -22
-40 -24 -34 -3 -38 -1 -38 21 0 37 11 43 58 31z"/>
<path d="M7645 381 c-48 -22 -68 -56 -68 -116 0 -71 53 -115 138 -115 56 0
108 23 130 57 22 34 23 105 1 138 -35 53 -127 70 -201 36z m125 -51 c44 -44
11 -130 -50 -130 -44 0 -70 26 -70 70 0 70 74 106 120 60z"/>
<path d="M7986 323 c-3 -42 -6 -98 -6 -125 l0 -48 35 0 35 0 0 50 0 50 50 0
c47 0 50 2 50 25 0 23 -4 25 -45 25 -41 0 -45 2 -45 25 0 24 3 25 55 25 52 0
55 1 55 25 0 25 -1 25 -89 25 l-88 0 -7 -77z"/>
<path d="M8570 343 c0 -32 -3 -88 -7 -125 l-6 -68 102 0 101 0 0 25 c0 24 -2
25 -65 25 -36 0 -65 4 -65 9 0 32 14 41 61 41 46 0 49 2 49 25 0 23 -3 25 -50
25 -47 0 -50 2 -50 25 0 24 2 25 65 25 63 0 65 1 65 25 l0 25 -100 0 -100 0 0
-57z"/>
<path d="M8862 388 c3 -7 22 -64 44 -125 l39 -113 40 0 40 0 60 117 c33 64 62
120 63 125 2 4 -13 8 -33 8 -36 0 -36 -1 -77 -90 -23 -50 -45 -87 -49 -83 -4
4 -18 44 -31 88 l-24 80 -39 3 c-28 3 -36 0 -33 -10z"/>
<path d="M9246 368 c-3 -18 -7 -75 -9 -125 l-3 -93 98 0 c98 0 98 0 98 25 0
24 -3 25 -60 25 -57 0 -60 1 -60 25 0 24 3 25 55 25 52 0 55 1 55 25 0 23 -3
25 -48 25 -55 0 -62 4 -55 31 5 16 14 19 64 19 56 0 59 1 59 25 0 25 0 25 -95
25 l-94 0 -5 -32z"/>
<path d="M9566 389 c-3 -8 -6 -65 -8 -126 l-3 -113 31 0 c31 0 31 1 38 61 3
34 6 80 6 101 0 39 0 39 38 36 32 -3 37 -6 37 -28 0 -20 -6 -26 -28 -28 -16
-2 -27 -9 -25 -15 2 -7 12 -38 22 -69 19 -57 20 -58 58 -58 l38 0 -24 53 -23
53 29 26 c33 30 36 67 8 93 -27 24 -187 36 -194 14z"/>
<path d="M9870 395 c0 -3 18 -39 40 -79 36 -65 39 -78 34 -119 l-7 -47 35 0
c32 0 36 3 42 31 3 17 6 40 6 51 0 11 19 48 43 82 64 92 63 86 19 86 -37 0
-42 -4 -67 -47 l-28 -46 -24 46 c-21 42 -27 47 -58 47 -19 0 -35 -2 -35 -5z"/>
<path d="M10190 375 c0 -23 4 -25 41 -25 l41 0 -7 -100 -7 -100 35 0 34 0 8
100 7 100 39 0 c35 0 39 3 39 25 l0 25 -115 0 -115 0 0 -25z"/>
<path d="M10525 388 c-2 -7 -5 -64 -7 -125 l-3 -113 37 0 38 0 0 50 0 50 55 0
54 0 -6 -50 -6 -50 42 0 41 0 0 94 c0 51 3 108 6 125 6 31 6 31 -35 31 l-41 0
0 -51 0 -50 -52 3 -52 3 3 48 3 47 -37 0 c-20 0 -37 -6 -40 -12z"/>
<path d="M10900 306 c0 -51 -3 -108 -6 -125 -6 -31 -6 -31 35 -31 l41 0 0 88
c0 48 3 104 6 125 l7 37 -42 0 -41 0 0 -94z"/>
<path d="M11106 358 c-3 -24 -7 -80 -8 -125 l-3 -83 32 0 32 0 3 83 3 82 48
-82 49 -83 44 0 44 0 0 79 c0 43 3 99 6 125 l7 47 -34 -3 -34 -3 -5 -80 -5
-80 -45 80 c-45 78 -47 80 -87 83 l-42 3 -5 -43z"/>
<path d="M11541 383 c-74 -36 -95 -136 -42 -195 28 -31 33 -33 108 -36 43 -1
84 2 92 7 9 6 16 33 19 70 l4 61 -51 0 c-44 0 -51 -3 -51 -20 0 -11 7 -20 15
-20 9 0 15 -9 15 -25 0 -22 -4 -25 -39 -25 -60 0 -86 46 -60 104 15 33 59 50
114 44 42 -5 45 -4 45 17 0 13 -7 26 -16 29 -31 12 -119 5 -153 -11z"/>
</g>
</svg>
